adventprofmm_reg_krn.ufo
<glyph name="m" format="1">
  <advance width="715"/>
  <unicode hex="006D"/>
  <outline>
    <contour>
      <point x="626" y="341" type="curve" smooth="yes"/>
      <point x="626" y="0" type="line"/>
      <point x="679" y="0" type="line"/>
      <point x="679" y="343" type="line" smooth="yes"/>
      <point x="679" y="449"/>
      <point x="626" y="507"/>
      <point x="515" y="507" type="curve" smooth="yes"/>
      <point x="472" y="507"/>
      <point x="413" y="492"/>
      <point x="358" y="451" type="curve"/>
      <point x="331" y="487"/>
      <point x="286" y="507"/>
      <point x="223" y="507" type="curve" smooth="yes"/>
      <point x="173" y="507"/>
      <point x="135" y="491"/>
      <point x="94" y="464" type="curve"/>
      <point x="94" y="498" type="line"/>
      <point x="38" y="498" type="line"/>
      <point x="38" y="0" type="line"/>
      <point x="94" y="0" type="line"/>
      <point x="94" y="422" type="line"/>
      <point x="135" y="446"/>
      <point x="167" y="457"/>
      <point x="213" y="457" type="curve" smooth="yes"/>
      <point x="276" y="457"/>
      <point x="334" y="431"/>
      <point x="334" y="341" type="curve" smooth="yes"/>
      <point x="334" y="0" type="line"/>
      <point x="386" y="0" type="line"/>
      <point x="386" y="343" type="line" smooth="yes"/>
      <point x="386" y="371"/>
      <point x="383" y="396"/>
      <point x="375" y="417" type="curve"/>
      <point x="423" y="446"/>
      <point x="466" y="457"/>
      <point x="505" y="457" type="curve" smooth="yes"/>
      <point x="569" y="457"/>
      <point x="626" y="431"/>
    </contour>
  </outline>
</glyph>
<glyph name="registered" format="1">
  <advance width="694"/>
  <unicode hex="00AE"/>
  <outline>
    <contour>
      <point x="662" y="187" type="curve" smooth="yes"/>
      <point x="662" y="326" type="line" smooth="yes"/>
      <point x="662" y="496"/>
      <point x="530" y="581"/>
      <point x="346" y="582" type="curve" smooth="yes"/>
      <point x="163" y="581"/>
      <point x="31" y="496"/>
      <point x="31" y="326" type="curve" smooth="yes"/>
      <point x="31" y="187" type="line" smooth="yes"/>
      <point x="31" y="16"/>
      <point x="163" y="-68"/>
      <point x="346" y="-69" type="curve" smooth="yes"/>
      <point x="530" y="-68"/>
      <point x="662" y="16"/>
    </contour>
    <contour>
      <point x="601" y="301" type="curve" smooth="yes"/>
      <point x="601" y="211" type="line" smooth="yes"/>
      <point x="601" y="48"/>
      <point x="521" y="-13"/>
      <point x="346" y="-15" type="curve" smooth="yes"/>
      <point x="171" y="-13"/>
      <point x="90" y="48"/>
      <point x="90" y="211" type="curve" smooth="yes"/>
      <point x="90" y="301" type="line" smooth="yes"/>
      <point x="90" y="464"/>
      <point x="171" y="526"/>
      <point x="346" y="528" type="curve" smooth="yes"/>
      <point x="521" y="526"/>
      <point x="601" y="464"/>
    </contour>
    <contour>
      <point x="384" y="442" type="curve" smooth="yes"/>
      <point x="180" y="442" type="line"/>
      <point x="180" y="59" type="line"/>
      <point x="233" y="59" type="line"/>
      <point x="233" y="176" type="line"/>
      <point x="382" y="176" type="line"/>
      <point x="439" y="59" type="line"/>
      <point x="503" y="59" type="line"/>
      <point x="440" y="185" type="line"/>
      <point x="479" y="197"/>
      <point x="515" y="229"/>
      <point x="514" y="311" type="curve" smooth="yes"/>
      <point x="512" y="430"/>
      <point x="437" y="442"/>
    </contour>
    <contour>
      <point x="387" y="232" type="curve" smooth="yes"/>
      <point x="233" y="232" type="line"/>
      <point x="233" y="388" type="line"/>
      <point x="387" y="388" type="line" smooth="yes"/>
      <point x="440" y="388"/>
      <point x="462" y="365"/>
      <point x="462" y="310" type="curve" smooth="yes"/>
      <point x="462" y="256"/>
      <point x="438" y="232"/>
    </contour>
  </outline>
</glyph>
<glyph name="Udieresis" format="1">
  <advance width="496"/>
  <unicode hex="00DC"/>
  <outline>
    <contour>
      <point x="456" y="185" type="curve" smooth="yes"/>
      <point x="456" y="698" type="line"/>
      <point x="401" y="698" type="line"/>
      <point x="401" y="186" type="line" smooth="yes"/>
      <point x="401" y="140"/>
      <point x="386" y="106"/>
      <point x="362" y="81" type="curve" smooth="yes"/>
      <point x="335" y="54"/>
      <point x="295" y="42"/>
      <point x="247" y="42" type="curve" smooth="yes"/>
      <point x="205" y="42"/>
      <point x="167" y="53"/>
      <point x="141" y="74" type="curve" smooth="yes"/>
      <point x="110" y="98"/>
      <point x="93" y="135"/>
      <point x="93" y="186" type="curve" smooth="yes"/>
      <point x="93" y="698" type="line"/>
      <point x="38" y="698" type="line"/>
      <point x="38" y="185" type="line" smooth="yes"/>
      <point x="38" y="118"/>
      <point x="58" y="68"/>
      <point x="99" y="36" type="curve" smooth="yes"/>
      <point x="141" y="4"/>
      <point x="190" y="-11"/>
      <point x="248" y="-11" type="curve" smooth="yes"/>
      <point x="304" y="-11"/>
      <point x="353" y="4"/>
      <point x="394" y="36" type="curve" smooth="yes"/>
      <point x="435" y="68"/>
      <point x="456" y="118"/>
    </contour>
    <contour>
      <point x="359" y="803" type="curve" smooth="yes"/>
      <point x="359" y="822"/>
      <point x="343" y="836"/>
      <point x="326" y="836" type="curve" smooth="yes"/>
      <point x="307" y="836"/>
      <point x="292" y="822"/>
      <point x="292" y="803" type="curve" smooth="yes"/>
      <point x="292" y="784"/>
      <point x="307" y="769"/>
      <point x="326" y="769" type="curve" smooth="yes"/>
      <point x="343" y="769"/>
      <point x="359" y="784"/>
    </contour>
    <contour>
      <point x="202" y="803" type="curve" smooth="yes"/>
      <point x="202" y="822"/>
      <point x="186" y="836"/>
      <point x="167" y="836" type="curve" smooth="yes"/>
      <point x="149" y="836"/>
      <point x="134" y="822"/>
      <point x="134" y="803" type="curve" smooth="yes"/>
      <point x="134" y="784"/>
      <point x="149" y="769"/>
      <point x="167" y="769" type="curve" smooth="yes"/>
      <point x="186" y="769"/>
      <point x="202" y="784"/>
    </contour>
  </outline>
</glyph>
<glyph name="adieresis" format="1">
  <advance width="447"/>
  <unicode hex="00E4"/>
  <outline>
    <contour>
      <point x="355" y="349" type="curve"/>
      <point x="308" y="375"/>
      <point x="245" y="402"/>
      <point x="180" y="402" type="curve" smooth="yes"/>
      <point x="99" y="402"/>
      <point x="27" y="363"/>
      <point x="27" y="251" type="curve" smooth="yes"/>
      <point x="27" y="223"/>
      <point x="27" y="196"/>
      <point x="27" y="168" type="curve" smooth="yes"/>
      <point x="27" y="21"/>
      <point x="125" y="-14"/>
      <point x="254" y="-10" type="curve" smooth="yes"/>
      <point x="303" y="-9"/>
      <point x="411" y="0"/>
      <point x="411" y="0" type="curve"/>
      <point x="411" y="96"/>
      <point x="411" y="191"/>
      <point x="411" y="287" type="curve" smooth="yes"/>
      <point x="411" y="375"/>
      <point x="403" y="444"/>
      <point x="340" y="480" type="curve" smooth="yes"/>
      <point x="299" y="504"/>
      <point x="249" y="507"/>
      <point x="203" y="507" type="curve"/>
      <point x="201" y="464" type="line"/>
      <point x="238" y="464"/>
      <point x="272" y="461"/>
      <point x="297" y="449" type="curve" smooth="yes"/>
      <point x="334" y="432"/>
      <point x="355" y="404"/>
    </contour>
    <contour>
      <point x="355" y="302" type="curve"/>
      <point x="355" y="217"/>
      <point x="355" y="132"/>
      <point x="355" y="46" type="curve"/>
      <point x="355" y="46"/>
      <point x="314" y="42"/>
      <point x="249" y="38" type="curve" smooth="yes"/>
      <point x="116" y="33"/>
      <point x="82" y="80"/>
      <point x="82" y="175" type="curve" smooth="yes"/>
      <point x="82" y="195"/>
      <point x="82" y="226"/>
      <point x="82" y="249" type="curve" smooth="yes"/>
      <point x="82" y="339"/>
      <point x="139" y="354"/>
      <point x="175" y="354" type="curve" smooth="yes"/>
      <point x="239" y="354"/>
      <point x="300" y="329"/>
    </contour>
    <contour>
      <point x="296" y="641" type="curve" smooth="yes"/>
      <point x="279" y="641"/>
      <point x="263" y="626"/>
      <point x="263" y="607" type="curve" smooth="yes"/>
      <point x="263" y="588"/>
      <point x="279" y="574"/>
      <point x="296" y="574" type="curve" smooth="yes"/>
      <point x="315" y="574"/>
      <point x="330" y="588"/>
      <point x="330" y="607" type="curve" smooth="yes"/>
      <point x="330" y="626"/>
      <point x="315" y="641"/>
    </contour>
    <contour>
      <point x="139" y="641" type="curve" smooth="yes"/>
      <point x="120" y="641"/>
      <point x="105" y="626"/>
      <point x="105" y="607" type="curve" smooth="yes"/>
      <point x="105" y="588"/>
      <point x="120" y="574"/>
      <point x="139" y="574" type="curve" smooth="yes"/>
      <point x="158" y="574"/>
      <point x="172" y="588"/>
      <point x="172" y="607" type="curve" smooth="yes"/>
      <point x="172" y="626"/>
      <point x="158" y="641"/>
    </contour>
  </outline>
</glyph>
<glyph name="ydieresis" format="1">
  <advance width="464"/>
  <unicode hex="00FF"/>
  <outline>
    <contour>
      <point x="435" y="468" type="curve"/>
      <point x="415" y="510" type="line"/>
      <point x="367" y="494"/>
      <point x="346" y="453"/>
      <point x="346" y="408" type="curve" smooth="yes"/>
      <point x="346" y="173" type="line" smooth="yes"/>
      <point x="346" y="102"/>
      <point x="290" y="44"/>
      <point x="219" y="44" type="curve" smooth="yes"/>
      <point x="157" y="44"/>
      <point x="89" y="69"/>
      <point x="89" y="161" type="curve" smooth="yes"/>
      <point x="89" y="499" type="line"/>
      <point x="33" y="499" type="line"/>
      <point x="33" y="157" type="line" smooth="yes"/>
      <point x="33" y="44"/>
      <point x="97" y="-9"/>
      <point x="207" y="-9" type="curve" smooth="yes"/>
      <point x="257" y="-9"/>
      <point x="313" y="10"/>
      <point x="346" y="50" type="curve"/>
      <point x="346" y="-61" type="line" smooth="yes"/>
      <point x="346" y="-89"/>
      <point x="340" y="-112"/>
      <point x="327" y="-130" type="curve" smooth="yes"/>
      <point x="316" y="-145"/>
      <point x="301" y="-157"/>
      <point x="281" y="-165" type="curve"/>
      <point x="297" y="-208" type="line"/>
      <point x="329" y="-197"/>
      <point x="353" y="-184"/>
      <point x="371" y="-165" type="curve" smooth="yes"/>
      <point x="393" y="-140"/>
      <point x="402" y="-107"/>
      <point x="402" y="-62" type="curve" smooth="yes"/>
      <point x="402" y="407" type="line" smooth="yes"/>
      <point x="402" y="448"/>
      <point x="416" y="460"/>
    </contour>
    <contour>
      <point x="308" y="636" type="curve" smooth="yes"/>
      <point x="291" y="636"/>
      <point x="275" y="620"/>
      <point x="275" y="602" type="curve" smooth="yes"/>
      <point x="275" y="583"/>
      <point x="291" y="569"/>
      <point x="308" y="569" type="curve" smooth="yes"/>
      <point x="327" y="569"/>
      <point x="342" y="583"/>
      <point x="342" y="602" type="curve" smooth="yes"/>
      <point x="342" y="620"/>
      <point x="327" y="636"/>
    </contour>
    <contour>
      <point x="151" y="636" type="curve" smooth="yes"/>
      <point x="132" y="636"/>
      <point x="117" y="620"/>
      <point x="117" y="602" type="curve" smooth="yes"/>
      <point x="117" y="583"/>
      <point x="132" y="569"/>
      <point x="151" y="569" type="curve" smooth="yes"/>
      <point x="170" y="569"/>
      <point x="184" y="583"/>
      <point x="184" y="602" type="curve" smooth="yes"/>
      <point x="184" y="620"/>
      <point x="170" y="636"/>
    </contour>
  </outline>
</glyph>
<glyph name="Gcommaaccent" format="1">
  <advance width="477"/>
  <unicode hex="0122"/>
  <outline>
    <contour>
      <point x="353" y="636" type="curve"/>
      <point x="370" y="674" type="line"/>
      <point x="327" y="696"/>
      <point x="279" y="707"/>
      <point x="228" y="707" type="curve" smooth="yes"/>
      <point x="187" y="707"/>
      <point x="151" y="698"/>
      <point x="121" y="682" type="curve"/>
      <point x="64" y="647"/>
      <point x="34" y="586"/>
      <point x="34" y="502" type="curve" smooth="yes"/>
      <point x="34" y="188" type="line" smooth="yes"/>
      <point x="34" y="122"/>
      <point x="54" y="73"/>
      <point x="96" y="40" type="curve" smooth="yes"/>
      <point x="137" y="7"/>
      <point x="187" y="-10"/>
      <point x="247" y="-10" type="curve" smooth="yes"/>
      <point x="308" y="-10"/>
      <point x="354" y="7"/>
      <point x="390" y="41" type="curve"/>
      <point x="404" y="0" type="line"/>
      <point x="445" y="0" type="line"/>
      <point x="445" y="299" type="line"/>
      <point x="243" y="299" type="line"/>
      <point x="263" y="244" type="line"/>
      <point x="392" y="244" type="line"/>
      <point x="392" y="186" type="line" smooth="yes"/>
      <point x="392" y="143"/>
      <point x="378" y="109"/>
      <point x="352" y="84" type="curve" smooth="yes"/>
      <point x="327" y="58"/>
      <point x="290" y="44"/>
      <point x="245" y="44" type="curve" smooth="yes"/>
      <point x="155" y="44"/>
      <point x="90" y="98"/>
      <point x="90" y="186" type="curve" smooth="yes"/>
      <point x="90" y="510" type="line" smooth="yes"/>
      <point x="90" y="562"/>
      <point x="105" y="599"/>
      <point x="133" y="624" type="curve" smooth="yes"/>
      <point x="160" y="646"/>
      <point x="197" y="657"/>
      <point x="247" y="657" type="curve" smooth="yes"/>
      <point x="280" y="657"/>
      <point x="316" y="650"/>
    </contour>
    <contour>
      <point x="204" y="-198" type="curve"/>
      <point x="221" y="-210" type="line"/>
      <point x="241" y="-191"/>
      <point x="274" y="-153"/>
      <point x="274" y="-90" type="curve" smooth="yes"/>
      <point x="274" y="-70"/>
      <point x="259" y="-56"/>
      <point x="241" y="-56" type="curve" smooth="yes"/>
      <point x="223" y="-56"/>
      <point x="207" y="-72"/>
      <point x="207" y="-90" type="curve" smooth="yes"/>
      <point x="207" y="-107"/>
      <point x="219" y="-120"/>
      <point x="236" y="-123" type="curve"/>
      <point x="234" y="-144"/>
      <point x="226" y="-172"/>
    </contour>
  </outline>
</glyph>
<glyph name="ij" format="1">
  <advance width="309"/>
  <unicode hex="0133"/>
  <outline>
    <contour>
      <point x="46" y="0" type="line"/>
      <point x="102" y="0" type="line"/>
      <point x="102" y="499" type="line"/>
      <point x="46" y="499" type="line"/>
    </contour>
    <contour>
      <point x="75" y="708" type="curve" smooth="yes"/>
      <point x="56" y="708"/>
      <point x="41" y="693"/>
      <point x="41" y="674" type="curve" smooth="yes"/>
      <point x="41" y="656"/>
      <point x="56" y="641"/>
      <point x="75" y="641" type="curve" smooth="yes"/>
      <point x="92" y="641"/>
      <point x="108" y="656"/>
      <point x="108" y="674" type="curve" smooth="yes"/>
      <point x="108" y="693"/>
      <point x="92" y="708"/>
    </contour>
    <contour>
      <point x="260" y="-63" type="curve" smooth="yes"/>
      <point x="260" y="499" type="line"/>
      <point x="140" y="499" type="line"/>
      <point x="140" y="447" type="line"/>
      <point x="204" y="447" type="line"/>
      <point x="204" y="-62" type="line" smooth="yes"/>
      <point x="204" y="-90"/>
      <point x="198" y="-113"/>
      <point x="185" y="-131" type="curve" smooth="yes"/>
      <point x="174" y="-146"/>
      <point x="158" y="-158"/>
      <point x="138" y="-166" type="curve"/>
      <point x="154" y="-209" type="line"/>
      <point x="187" y="-198"/>
      <point x="210" y="-185"/>
      <point x="228" y="-166" type="curve" smooth="yes"/>
      <point x="251" y="-141"/>
      <point x="260" y="-108"/>
    </contour>
    <contour>
      <point x="267" y="674" type="curve" smooth="yes"/>
      <point x="267" y="693"/>
      <point x="252" y="707"/>
      <point x="233" y="707" type="curve" smooth="yes"/>
      <point x="215" y="707"/>
      <point x="200" y="693"/>
      <point x="200" y="674" type="curve" smooth="yes"/>
      <point x="200" y="656"/>
      <point x="215" y="641"/>
      <point x="233" y="641" type="curve" smooth="yes"/>
      <point x="252" y="641"/>
      <point x="267" y="656"/>
    </contour>
  </outline>
</glyph>
<glyph name="nacute" format="1">
  <advance width="436"/>
  <unicode hex="0144"/>
  <outline>
    <contour>
      <point x="348" y="342" type="curve" smooth="yes"/>
      <point x="348" y="0" type="line"/>
      <point x="403" y="0" type="line"/>
      <point x="403" y="345" type="line" smooth="yes"/>
      <point x="403" y="450"/>
      <point x="339" y="508"/>
      <point x="229" y="508" type="curve" smooth="yes"/>
      <point x="180" y="508"/>
      <point x="129" y="492"/>
      <point x="91" y="465" type="curve"/>
      <point x="91" y="499" type="line"/>
      <point x="35" y="499" type="line"/>
      <point x="35" y="0" type="line"/>
      <point x="91" y="0" type="line"/>
      <point x="91" y="424" type="line"/>
      <point x="131" y="447"/>
      <point x="173" y="458"/>
      <point x="218" y="458" type="curve" smooth="yes"/>
      <point x="282" y="458"/>
      <point x="348" y="432"/>
    </contour>
    <contour>
      <point x="239" y="654" type="curve" smooth="yes"/>
      <point x="201" y="548" type="line"/>
      <point x="237" y="548" type="line"/>
      <point x="290" y="627" type="line"/>
      <point x="302" y="641"/>
      <point x="301" y="664"/>
      <point x="283" y="674" type="curve" smooth="yes"/>
      <point x="266" y="684"/>
      <point x="245" y="673"/>
    </contour>
  </outline>
</glyph>
<glyph name="racute" format="1">
  <advance width="330"/>
  <unicode hex="0155"/>
  <outline>
    <contour>
      <point x="302" y="459" type="curve"/>
      <point x="306" y="507" type="line"/>
      <point x="306" y="507"/>
      <point x="285" y="512"/>
      <point x="261" y="510" type="curve" smooth="yes"/>
      <point x="189" y="507"/>
      <point x="140" y="488"/>
      <point x="91" y="466" type="curve"/>
      <point x="91" y="499" type="line"/>
      <point x="35" y="499" type="line"/>
      <point x="35" y="0" type="line"/>
      <point x="91" y="0" type="line"/>
      <point x="91" y="408" type="line"/>
      <point x="128" y="433"/>
      <point x="203" y="457"/>
      <point x="260" y="460" type="curve" smooth="yes"/>
      <point x="281" y="461"/>
      <point x="302" y="459"/>
    </contour>
    <contour>
      <point x="172" y="649" type="curve" smooth="yes"/>
      <point x="135" y="542" type="line"/>
      <point x="170" y="542" type="line"/>
      <point x="223" y="621" type="line"/>
      <point x="236" y="636"/>
      <point x="234" y="659"/>
      <point x="216" y="669" type="curve" smooth="yes"/>
      <point x="199" y="679"/>
      <point x="179" y="668"/>
    </contour>
  </outline>
</glyph>
<glyph name="Ycircumflex" format="1">
  <advance width="513"/>
  <unicode hex="0176"/>
  <outline>
    <contour>
      <point x="472" y="155" type="curve" smooth="yes"/>
      <point x="472" y="698" type="line"/>
      <point x="416" y="698" type="line"/>
      <point x="416" y="422" type="line" smooth="yes"/>
      <point x="416" y="380"/>
      <point x="391" y="339"/>
      <point x="352" y="319" type="curve" smooth="yes"/>
      <point x="325" y="306"/>
      <point x="290" y="299"/>
      <point x="249" y="299" type="curve" smooth="yes"/>
      <point x="205" y="299"/>
      <point x="165" y="310"/>
      <point x="132" y="334" type="curve"/>
      <point x="100" y="360"/>
      <point x="86" y="395"/>
      <point x="86" y="451" type="curve" smooth="yes"/>
      <point x="86" y="698" type="line"/>
      <point x="30" y="698" type="line"/>
      <point x="30" y="462" type="line" smooth="yes"/>
      <point x="30" y="381"/>
      <point x="50" y="330"/>
      <point x="92" y="295" type="curve" smooth="yes"/>
      <point x="132" y="260"/>
      <point x="188" y="241"/>
      <point x="259" y="244" type="curve" smooth="yes"/>
      <point x="349" y="250"/>
      <point x="398" y="285"/>
      <point x="416" y="305" type="curve"/>
      <point x="416" y="152" type="line" smooth="yes"/>
      <point x="416" y="86"/>
      <point x="396" y="45"/>
      <point x="355" y="30" type="curve"/>
      <point x="368" y="-7" type="line"/>
      <point x="435" y="2"/>
      <point x="472" y="58"/>
    </contour>
    <contour>
      <point x="257" y="913" type="line"/>
      <point x="346" y="825" type="line"/>
      <point x="385" y="862" type="line"/>
      <point x="257" y="989" type="line"/>
      <point x="126" y="861" type="line"/>
      <point x="164" y="823" type="line"/>
    </contour>
  </outline>
</glyph>
<glyph name="scommaaccent" format="1">
  <advance width="416"/>
  <unicode hex="0219"/>
  <outline>
    <contour>
      <point x="322" y="439" type="curve"/>
      <point x="344" y="476" type="line"/>
      <point x="294" y="504"/>
      <point x="254" y="513"/>
      <point x="213" y="512" type="curve" smooth="yes"/>
      <point x="174" y="510"/>
      <point x="138" y="501"/>
      <point x="110" y="482" type="curve" smooth="yes"/>
      <point x="71" y="457"/>
      <point x="48" y="417"/>
      <point x="52" y="363" type="curve"/>
      <point x="57" y="324"/>
      <point x="79" y="298"/>
      <point x="107" y="278" type="curve" smooth="yes"/>
      <point x="136" y="258"/>
      <point x="173" y="244"/>
      <point x="209" y="231" type="curve" smooth="yes"/>
      <point x="243" y="218"/>
      <point x="274" y="206"/>
      <point x="299" y="188" type="curve" smooth="yes"/>
      <point x="321" y="172"/>
      <point x="334" y="152"/>
      <point x="334" y="122" type="curve"/>
      <point x="333" y="96"/>
      <point x="318" y="73"/>
      <point x="295" y="57" type="curve" smooth="yes"/>
      <point x="274" y="43"/>
      <point x="245" y="34"/>
      <point x="213" y="34" type="curve" smooth="yes"/>
      <point x="183" y="34"/>
      <point x="157" y="40"/>
      <point x="134" y="48" type="curve"/>
      <point x="102" y="62"/>
      <point x="77" y="80"/>
      <point x="57" y="100" type="curve"/>
      <point x="26" y="69" type="line"/>
      <point x="51" y="38"/>
      <point x="81" y="18"/>
      <point x="112" y="4" type="curve" smooth="yes"/>
      <point x="145" y="-10"/>
      <point x="180" y="-15"/>
      <point x="213" y="-17" type="curve" smooth="yes"/>
      <point x="253" y="-18"/>
      <point x="290" y="-8"/>
      <point x="320" y="11" type="curve" smooth="yes"/>
      <point x="361" y="36"/>
      <point x="389" y="79"/>
      <point x="386" y="134" type="curve" smooth="yes"/>
      <point x="383" y="170"/>
      <point x="367" y="198"/>
      <point x="344" y="219" type="curve" smooth="yes"/>
      <point x="314" y="245"/>
      <point x="272" y="262"/>
      <point x="233" y="276" type="curve" smooth="yes"/>
      <point x="202" y="288"/>
      <point x="171" y="299"/>
      <point x="148" y="312" type="curve" smooth="yes"/>
      <point x="125" y="326"/>
      <point x="107" y="342"/>
      <point x="103" y="364" type="curve" smooth="yes"/>
      <point x="98" y="399"/>
      <point x="113" y="425"/>
      <point x="137" y="440" type="curve" smooth="yes"/>
      <point x="158" y="454"/>
      <point x="185" y="462"/>
      <point x="215" y="463" type="curve" smooth="yes"/>
      <point x="251" y="464"/>
      <point x="291" y="457"/>
    </contour>
    <contour>
      <point x="174" y="-198" type="curve"/>
      <point x="192" y="-210" type="line"/>
      <point x="212" y="-191"/>
      <point x="244" y="-153"/>
      <point x="245" y="-90" type="curve"/>
      <point x="244" y="-70"/>
      <point x="229" y="-56"/>
      <point x="211" y="-56" type="curve" smooth="yes"/>
      <point x="193" y="-56"/>
      <point x="178" y="-72"/>
      <point x="178" y="-90" type="curve" smooth="yes"/>
      <point x="178" y="-107"/>
      <point x="190" y="-120"/>
      <point x="205" y="-123" type="curve"/>
      <point x="203" y="-144"/>
      <point x="195" y="-172"/>
    </contour>
  </outline>
</glyph>
<glyph name="tilde" format="1">
  <advance width="266"/>
  <unicode hex="02DC"/>
  <outline>
    <contour>
      <point x="242" y="694" type="line"/>
      <point x="228" y="683"/>
      <point x="208" y="673"/>
      <point x="189" y="674" type="curve" smooth="yes"/>
      <point x="176" y="674"/>
      <point x="129" y="700"/>
      <point x="81" y="700" type="curve" smooth="yes"/>
      <point x="54" y="700"/>
      <point x="26" y="692"/>
      <point x="3" y="668" type="curve"/>
      <point x="25" y="621" type="line"/>
      <point x="39" y="632"/>
      <point x="51" y="640"/>
      <point x="70" y="641" type="curve" smooth="yes"/>
      <point x="101" y="643"/>
      <point x="145" y="617"/>
      <point x="191" y="617" type="curve" smooth="yes"/>
      <point x="215" y="617"/>
      <point x="239" y="624"/>
      <point x="262" y="647" type="curve"/>
    </contour>
  </outline>
</glyph>
<glyph name="circumflexcomb" format="1">
  <advance width="266"/>
  <unicode hex="0302"/>
  <outline>
    <contour>
      <point x="134" y="693" type="line"/>
      <point x="223" y="605" type="line"/>
      <point x="263" y="642" type="line"/>
      <point x="134" y="769" type="line"/>
      <point x="3" y="641" type="line"/>
      <point x="42" y="603" type="line"/>
    </contour>
  </outline>
</glyph>
<glyph name="Eta" format="1">
  <advance width="513"/>
  <unicode hex="0397"/>
  <outline>
    <contour>
      <point x="414" y="411" type="line"/>
      <point x="97" y="411" type="line"/>
      <point x="97" y="698" type="line"/>
      <point x="41" y="698" type="line"/>
      <point x="41" y="0" type="line"/>
      <point x="97" y="0" type="line"/>
      <point x="97" y="356" type="line"/>
      <point x="414" y="356" type="line"/>
      <point x="414" y="0" type="line"/>
      <point x="470" y="0" type="line"/>
      <point x="470" y="698" type="line"/>
      <point x="414" y="698" type="line"/>
    </contour>
  </outline>
</glyph>
<glyph name="Rho" format="1">
  <advance width="504"/>
  <unicode hex="03A1"/>
  <outline>
    <contour>
      <point x="276" y="698" type="curve" smooth="yes"/>
      <point x="41" y="698" type="line"/>
      <point x="41" y="0" type="line"/>
      <point x="97" y="0" type="line"/>
      <point x="97" y="244" type="line"/>
      <point x="161" y="244"/>
      <point x="228" y="244"/>
      <point x="276" y="244" type="curve" smooth="yes"/>
      <point x="408" y="244"/>
      <point x="474" y="307"/>
      <point x="474" y="472" type="curve" smooth="yes"/>
      <point x="474" y="643"/>
      <point x="403" y="698"/>
    </contour>
    <contour>
      <point x="97" y="299" type="curve"/>
      <point x="97" y="645" type="line"/>
      <point x="281" y="645" type="line" smooth="yes"/>
      <point x="359" y="645"/>
      <point x="418" y="613"/>
      <point x="418" y="472" type="curve" smooth="yes"/>
      <point x="418" y="320"/>
      <point x="357" y="299"/>
      <point x="281" y="299" type="curve" smooth="yes"/>
      <point x="236" y="299"/>
      <point x="170" y="299"/>
    </contour>
  </outline>
</glyph>
<glyph name="beta" format="1">
  <advance width="441"/>
  <unicode hex="03B2"/>
  <outline>
    <contour>
      <point x="39" y="520" type="curve" smooth="yes"/>
      <point x="39" y="-198" type="line"/>
      <point x="95" y="-212" type="line"/>
      <point x="95" y="-4" type="line"/>
      <point x="129" y="-7"/>
      <point x="171" y="-10"/>
      <point x="196" y="-10" type="curve" smooth="yes"/>
      <point x="325" y="-14"/>
      <point x="411" y="21"/>
      <point x="411" y="168" type="curve" smooth="yes"/>
      <point x="411" y="197"/>
      <point x="411" y="224"/>
      <point x="411" y="253" type="curve" smooth="yes"/>
      <point x="411" y="356"/>
      <point x="361" y="397"/>
      <point x="289" y="404" type="curve"/>
      <point x="286" y="404"/>
      <point x="275" y="404"/>
      <point x="273" y="404" type="curve"/>
      <point x="330" y="453"/>
      <point x="348" y="504"/>
      <point x="350" y="544" type="curve" smooth="yes"/>
      <point x="353" y="635"/>
      <point x="300" y="701"/>
      <point x="207" y="701" type="curve" smooth="yes"/>
      <point x="104" y="701"/>
      <point x="39" y="616"/>
    </contour>
    <contour>
      <point x="96" y="361" type="curve"/>
      <point x="96" y="527" type="line" smooth="yes"/>
      <point x="96" y="587"/>
      <point x="137" y="645"/>
      <point x="204" y="645" type="curve" smooth="yes"/>
      <point x="261" y="645"/>
      <point x="295" y="599"/>
      <point x="293" y="543" type="curve"/>
      <point x="287" y="477"/>
      <point x="249" y="425"/>
      <point x="171" y="392" type="curve" smooth="yes"/>
      <point x="151" y="384"/>
      <point x="136" y="377"/>
    </contour>
    <contour>
      <point x="95" y="45" type="curve"/>
      <point x="95" y="304" type="line"/>
      <point x="121" y="317"/>
      <point x="147" y="328"/>
      <point x="174" y="338" type="curve" smooth="yes"/>
      <point x="206" y="349"/>
      <point x="228" y="356"/>
      <point x="262" y="356" type="curve" smooth="yes"/>
      <point x="300" y="356"/>
      <point x="358" y="341"/>
      <point x="358" y="251" type="curve" smooth="yes"/>
      <point x="358" y="228"/>
      <point x="358" y="194"/>
      <point x="358" y="175" type="curve" smooth="yes"/>
      <point x="358" y="80"/>
      <point x="335" y="33"/>
      <point x="202" y="38" type="curve" smooth="yes"/>
      <point x="137" y="41"/>
      <point x="95" y="45"/>
    </contour>
  </outline>
</glyph>
<glyph name="tau" format="1">
  <advance width="350"/>
  <unicode hex="03C4"/>
  <outline>
    <contour>
      <point x="196" y="132" type="curve" smooth="yes"/>
      <point x="196" y="446" type="line"/>
      <point x="323" y="446" type="line"/>
      <point x="323" y="498" type="line"/>
      <point x="20" y="498" type="line"/>
      <point x="20" y="446" type="line"/>
      <point x="140" y="446" type="line"/>
      <point x="140" y="132" type="line" smooth="yes"/>
      <point x="140" y="53"/>
      <point x="171" y="8"/>
      <point x="246" y="-13" type="curve"/>
      <point x="262" y="30" type="line"/>
      <point x="218" y="45"/>
      <point x="196" y="79"/>
    </contour>
  </outline>
</glyph>
<glyph name="iotadieresis" format="1">
  <advance width="264"/>
  <unicode hex="03CA"/>
  <outline>
    <contour>
      <point x="102" y="0" type="line"/>
      <point x="158" y="0" type="line"/>
      <point x="158" y="499" type="line"/>
      <point x="102" y="499" type="line"/>
    </contour>
    <contour>
      <point x="209" y="636" type="curve" smooth="yes"/>
      <point x="191" y="636"/>
      <point x="176" y="620"/>
      <point x="176" y="602" type="curve" smooth="yes"/>
      <point x="176" y="583"/>
      <point x="191" y="569"/>
      <point x="209" y="569" type="curve" smooth="yes"/>
      <point x="228" y="569"/>
      <point x="242" y="583"/>
      <point x="242" y="602" type="curve" smooth="yes"/>
      <point x="242" y="620"/>
      <point x="228" y="636"/>
    </contour>
    <contour>
      <point x="51" y="636" type="curve" smooth="yes"/>
      <point x="33" y="636"/>
      <point x="18" y="620"/>
      <point x="18" y="602" type="curve" smooth="yes"/>
      <point x="18" y="583"/>
      <point x="33" y="569"/>
      <point x="51" y="569" type="curve" smooth="yes"/>
      <point x="70" y="569"/>
      <point x="85" y="583"/>
      <point x="85" y="602" type="curve" smooth="yes"/>
      <point x="85" y="620"/>
      <point x="70" y="636"/>
    </contour>
  </outline>
</glyph>
<glyph name="Wacute" format="1">
  <advance width="731"/>
  <unicode hex="1E82"/>
  <outline>
    <contour>
      <point x="404" y="698" type="line"/>
      <point x="326" y="698" type="line"/>
      <point x="219" y="69" type="line"/>
      <point x="78" y="698" type="line"/>
      <point x="17" y="698" type="line"/>
      <point x="182" y="0" type="line"/>
      <point x="267" y="0" type="line"/>
      <point x="366" y="597" type="line"/>
      <point x="464" y="0" type="line"/>
      <point x="548" y="0" type="line"/>
      <point x="711" y="698" type="line"/>
      <point x="652" y="698" type="line"/>
      <point x="511" y="69" type="line"/>
    </contour>
    <contour>
      <point x="314" y="823" type="line"/>
      <point x="349" y="823" type="line"/>
      <point x="402" y="902" type="line"/>
      <point x="415" y="916"/>
      <point x="413" y="939"/>
      <point x="395" y="949" type="curve" smooth="yes"/>
      <point x="378" y="959"/>
      <point x="358" y="948"/>
      <point x="351" y="930" type="curve" smooth="yes"/>
    </contour>
  </outline>
</glyph>
<glyph name="Wdieresis" format="1">
  <advance width="731"/>
  <unicode hex="1E84"/>
  <outline>
    <contour>
      <point x="404" y="698" type="line"/>
      <point x="326" y="698" type="line"/>
      <point x="219" y="69" type="line"/>
      <point x="78" y="698" type="line"/>
      <point x="17" y="698" type="line"/>
      <point x="182" y="0" type="line"/>
      <point x="267" y="0" type="line"/>
      <point x="366" y="597" type="line"/>
      <point x="464" y="0" type="line"/>
      <point x="548" y="0" type="line"/>
      <point x="711" y="698" type="line"/>
      <point x="652" y="698" type="line"/>
      <point x="511" y="69" type="line"/>
    </contour>
    <contour>
      <point x="285" y="960" type="curve" smooth="yes"/>
      <point x="268" y="960"/>
      <point x="252" y="945"/>
      <point x="252" y="926" type="curve" smooth="yes"/>
      <point x="252" y="908"/>
      <point x="268" y="893"/>
      <point x="285" y="893" type="curve" smooth="yes"/>
      <point x="304" y="893"/>
      <point x="319" y="908"/>
      <point x="319" y="926" type="curve" smooth="yes"/>
      <point x="319" y="945"/>
      <point x="304" y="960"/>
    </contour>
    <contour>
      <point x="444" y="960" type="curve" smooth="yes"/>
      <point x="425" y="960"/>
      <point x="411" y="945"/>
      <point x="411" y="926" type="curve" smooth="yes"/>
      <point x="411" y="908"/>
      <point x="425" y="893"/>
      <point x="444" y="893" type="curve" smooth="yes"/>
      <point x="463" y="893"/>
      <point x="477" y="908"/>
      <point x="477" y="926" type="curve" smooth="yes"/>
      <point x="477" y="945"/>
      <point x="463" y="960"/>
    </contour>
  </outline>
</glyph>
<glyph name="quotesinglbase" format="1">
  <advance width="139"/>
  <unicode hex="201A"/>
  <outline>
    <contour>
      <point x="34" y="-65" type="curve"/>
      <point x="51" y="-77" type="line"/>
      <point x="71" y="-59"/>
      <point x="103" y="-20"/>
      <point x="104" y="43" type="curve"/>
      <point x="103" y="63"/>
      <point x="89" y="76"/>
      <point x="70" y="76" type="curve" smooth="yes"/>
      <point x="52" y="76"/>
      <point x="37" y="62"/>
      <point x="37" y="43" type="curve" smooth="yes"/>
      <point x="37" y="26"/>
      <point x="49" y="13"/>
      <point x="64" y="10" type="curve"/>
      <point x="62" y="-11"/>
      <point x="54" y="-39"/>
    </contour>
  </outline>
</glyph>
<glyph name="fl" format="1">
  <advance width="369"/>
  <unicode hex="FB02"/>
  <outline>
    <contour>
      <point x="270" y="621" type="curve"/>
      <point x="270" y="0" type="line"/>
      <point x="327" y="0" type="line"/>
      <point x="327" y="656" type="line"/>
      <point x="284" y="690"/>
      <point x="236" y="705"/>
      <point x="192" y="705" type="curve" smooth="yes"/>
      <point x="108" y="705"/>
      <point x="38" y="648"/>
      <point x="41" y="560" type="curve" smooth="yes"/>
      <point x="41" y="0" type="line"/>
      <point x="97" y="0" type="line"/>
      <point x="97" y="446" type="line"/>
      <point x="188" y="446" type="line"/>
      <point x="212" y="498" type="line"/>
      <point x="97" y="498" type="line"/>
      <point x="97" y="548" type="line" smooth="yes"/>
      <point x="97" y="618"/>
      <point x="140" y="646"/>
      <point x="189" y="646" type="curve" smooth="yes"/>
      <point x="210" y="646"/>
      <point x="237" y="639"/>
    </contour>
  </outline>
</glyph>
